<?xml version="1.0" encoding="UTF-8" standalone="no"?>
<svg
   viewBox="0 0 24.606913 24.611187"
   version="1.1"
   id="svg1"
   width="24.606913"
   height="24.611187"
   xmlns="http://www.w3.org/2000/svg"
   xmlns:svg="http://www.w3.org/2000/svg">
  <defs
     id="defs1" />
  <path
     d="m 10.828432,24.594421 c -2.2778001,-0.1804 -4.0662001,-0.654 -5.8212001,-1.5414 -1.1972,-0.6054 -1.9656,-1.151 -2.794,-1.984 -0.6461,-0.6497 -0.9695,-1.0786 -1.0354,-1.3731 -0.0539,-0.2405 0.0438,-0.3877 0.2573,-0.3877 0.1385,0 0.3681,0.132 0.7585,0.4358 1.7029,1.3256 4.0807,2.2867 6.7193,2.716 2.4595001,0.4 4.9596001,0.351 7.4985001,-0.147 0.829,-0.1626 1.561,-0.3539 2.3134,-0.6042 0.5662,-0.1885 0.9335,-0.34 1.51,-0.623 0.3821,-0.1877 0.4981,-0.2329 0.6226,-0.2424 0.1456,-0.0111 0.157,-0.0076 0.2348,0.0779 0.1203,0.1316 0.1159,0.2992 -0.013,0.4932 -0.1191,0.1796 -0.333,0.3933 -0.6431,0.6428 -1.6106,1.2957 -4.227,2.2257 -7.0314,2.4993 -0.5025,0.049 -2.1335,0.073 -2.5763,0.0379 z m 10.5242,-1.529 c -0.1597,-0.1401 -0.1323,-0.294 0.1294,-0.728 0.3494,-0.5792 0.6425,-1.2774 0.7158,-1.7053 0.0616,-0.359 -0.0287,-0.4746 -0.4257,-0.545 -0.3728,-0.066 -1.2411,-0.0198 -1.7872,0.095 -0.1007,0.0212 -0.2829,0.0385 -0.4048,0.0385 -0.1993,0 -0.2278,-0.0067 -0.2822,-0.0645 -0.0333,-0.0354 -0.067,-0.112 -0.0748,-0.1701 -0.0122,-0.0916 -0.0025,-0.119 0.074,-0.2061 0.1218,-0.1386 0.3575,-0.2935 0.6792,-0.4461 0.5587,-0.2651 1.0496,-0.3746 1.6788,-0.3744 0.812,2e-4 1.461,0.1955 1.678,0.505 0.0796,0.1135 0.0814,0.1233 0.091,0.4967 0.0071,0.2772 -0.0023,0.4466 -0.0349,0.6221 -0.1065,0.5746 -0.4042,1.2376 -0.7466,1.6627 -0.2225,0.2763 -0.7182,0.73 -0.8927,0.817 -0.2024,0.1012 -0.2843,0.1017 -0.3973,0.003 z m -11.4332001,-5.962 c -0.672,-0.1285 -1.2398,-0.808 -1.4655,-1.7537 -0.1545,-0.6472 -0.1647,-1.5821 -0.0243,-2.2342 0.1858,-0.8634 0.6042,-1.4902 1.171,-1.7541 0.7213001,-0.3358 1.4706001,-0.1278 1.9156001,0.5316 0.0733,0.1086 0.1448,0.1905 0.1588,0.1818 0.0155,-0.0096 0.0255,-0.4887 0.0255,-1.2219 0,-1.1803001 10e-4,-1.2072001 0.055,-1.2610001 0.0529,-0.053 0.08,-0.0548 0.683,-0.047 0.4566,0.0056 0.6372,0.0171 0.6615,0.0415 0.0617,0.0618 0.0697,0.6112001 0.0575,3.9653001 l -0.012,3.3278 -0.0563,0.0604 c -0.0544,0.0585 -0.0721,0.0604 -0.5592,0.0604 -0.2767,0 -0.5226,-0.0076 -0.5465,-0.0167 -0.072,-0.0276 -0.1137,-0.142 -0.1778,-0.4869 -0.0335,-0.1806 -0.0679,-0.3283 -0.0764,-0.3283 -0.0085,0 -0.051,0.0694 -0.0944,0.1543 -0.1172,0.2286 -0.4363,0.534 -0.6872,0.6576 -0.1114,0.055 -0.267,0.112 -0.3458,0.127 -0.1716,0.0325 -0.502,0.0307 -0.6825001,-0.0038 z m 1.1773001,-1.2712 c 0.4351,-0.2107 0.6684,-0.9124 0.62,-1.8646 -0.044,-0.863 -0.2991,-1.3672 -0.7542,-1.4904 -0.1502,-0.0406 -0.1966,-0.043 -0.3201,-0.0152 -0.4332,0.0969 -0.6774001,0.4909 -0.7665001,1.2365 -0.0552,0.462 -0.0235,1.003 0.0814,1.3909 0.1050001,0.3882 0.2826001,0.639 0.5355001,0.7562 0.1534,0.071 0.4428,0.0647 0.6039,-0.0133 z m 4.7904,1.264 c -0.2654,-0.056 -0.453,-0.1264 -0.6767,-0.2544 -0.6454,-0.3693 -1.102,-1.0849 -1.2439,-1.9494 -0.058,-0.3537 -0.058,-1.0127 0,-1.3664 0.1365,-0.8321 0.5897,-1.5798 1.1947,-1.9708 0.3178,-0.2054 0.8209,-0.3518 1.209,-0.3518 0.225,0 0.5954,0.071 0.8151,0.1563 0.533,0.207 1.0047,0.702 1.2718,1.3346 0.1795,0.425 0.2533,0.821 0.2579,1.3842 0.003,0.3777 -0.0017,0.4253 -0.0477,0.4764 -0.051,0.0566 -0.056,0.0568 -1.6304,0.0568 h -1.5792 v 0.0916 c 0,0.164 0.0752,0.4899 0.1602,0.6941 0.1026,0.2465 0.2328,0.4024 0.413,0.4949 0.1884,0.0966 0.499,0.1003 0.709,0.0086 0.169,-0.0739 0.3603,-0.2745 0.4175,-0.4378 0.0217,-0.0623 0.0563,-0.1616 0.0766,-0.2207 0.033,-0.0952 0.0479,-0.1082 0.1324,-0.1154 0.1196,-0.01 1.0882,0.2 1.174,0.2548 0.0883,0.0563 0.068,0.178 -0.083,0.4955 -0.151,0.3178 -0.3942,0.6236 -0.6443,0.8104 -0.4167,0.3112 -0.7572,0.4211 -1.349,0.4354 -0.2726,0.0067 -0.4589,-0.0019 -0.577,-0.027 z m 1.3113,-3.4752 c 0.0288,-0.0178 0.027,-0.0653 -0.0095,-0.2602 -0.0885,-0.473 -0.2755,-0.7918 -0.5355,-0.9129 -0.3983,-0.1855 -0.8453,0.0532 -1.0367,0.5536 -0.089,0.2326 -0.1584,0.5803 -0.123,0.6157 0.0351,0.035 1.6482,0.0387 1.7047,0.0038 z m 4.0347,3.4726 c -0.668,-0.1526 -1.2758,-0.6575 -1.6276,-1.3517 -0.1168,-0.2307 -0.2563,-0.6905 -0.2977,-0.982 -0.1625,-1.1424 0.1616,-2.2463 0.8516,-2.9012 0.3602,-0.342 0.6845,-0.5177 1.1152,-0.6043 1.516,-0.305 2.8188,0.9341 2.8976,2.756 0.033,0.7608 -0.1514,1.4852 -0.5197,2.0418 -0.308,0.4654 -0.7933,0.8363 -1.311,1.002 -0.2426,0.0775 -0.8475,0.099 -1.1084,0.0394 z m 0.8131,-1.214 c 0.2445,-0.1267 0.4312,-0.4248 0.5313,-0.848 0.0504,-0.2132 0.058,-0.3248 0.0584,-0.8493 3e-4,-0.4856 -0.0089,-0.6432 -0.0472,-0.805 -0.1383,-0.585 -0.3708,-0.8916 -0.733,-0.9668 -0.4736,-0.0983 -0.851,0.2559 -0.9901,0.9294 -0.1685,0.8158 -0.0675,1.8239 0.2274,2.2691 0.0832,0.1256 0.2755,0.2802 0.3978,0.3197 0.1236,0.04 0.4369,0.0123 0.5554,-0.0491 z m -20.1254001,1.0695 c -0.0524,-0.0578 -0.0783,-0.1364 -0.2439,-0.7406 a 204.9529,204.9529 0 0 0 -0.2682,-0.9661 208.1657,208.1657 0 0 1 -0.4023,-1.4492 239.7715,239.7715 0 0 0 -0.51199996,-1.8412 c -0.0655,-0.2304 -0.119,-0.444 -0.119,-0.4749 0,-0.1261 0.0722,-0.1395 0.75439996,-0.1395 0.5697,0 0.6412,0.0048 0.6943,0.048 0.0499,0.0403 0.0923,0.1977 0.2693,0.9996 0.212,0.9602 0.2816,1.273 0.376,1.6898 0.137,0.6047 0.2944,1.3462 0.2944,1.3873 0,0.0841 0.044,-0.002 0.0778,-0.1528 0.0347,-0.1543 0.1056,-0.4772 0.4424,-2.0128 0.3557,-1.6223 0.412,-1.856 0.4575,-1.9017 0.0378,-0.0379 0.1328,-0.045 0.6804,-0.051 0.6825,-0.0076 0.7625,0.0048 0.7793,0.122 0.0075,0.0525 -0.085,0.3994 -0.4942,1.8524 a 393.9247,393.9247 0 0 0 -0.5782,2.0984 c -0.0932,0.3421 -0.1636,0.5897 -0.3752,1.3207 -0.0286,0.099 -0.0707,0.1986 -0.0935,0.2214 -0.0354,0.0354 -0.159,0.0413 -0.8672,0.0413 -0.7781,0 -0.8285,-0.0029 -0.8722,-0.0511 z m 4.1875,-0.0048 -0.0711,-0.056 0.0071,-2.7207 c 0.0067,-2.5696 0.0097,-2.7235 0.055,-2.7687 0.0425,-0.0426 0.1143,-0.0488 0.6493,-0.056 0.5067,-0.0067 0.6145,-0.002 0.6835,0.0342 l 0.082,0.0423 v 2.7086 c 0,1.9448 -0.0086,2.7273 -0.0302,2.7747 -0.0166,0.0364 -0.0558,0.073 -0.0872,0.0814 -0.0314,0.0086 -0.3182,0.0156 -0.6372,0.0157 -0.5475,3e-4 -0.5841,-0.0029 -0.6512,-0.0555 z m 0.4216,-6.0333 c -0.2383,-0.0616 -0.477,-0.285 -0.5561,-0.5204 -0.0543,-0.1614 -0.0554,-0.4244001 -0.0027,-0.6021001 0.0484,-0.163 0.2378,-0.3861 0.3992,-0.4702 0.1678,-0.0873 0.5799,-0.1004 0.7528,-0.0238 0.2007,0.0887 0.3263,0.2048 0.416,0.3845 0.0738,0.1475 0.0821,0.1892 0.0816,0.4083001 -7e-4,0.2837 -0.0505,0.424 -0.2089,0.5884 -0.1589,0.165 -0.329,0.2376 -0.5812,0.2482 -0.1186,0.0048 -0.254,-8e-4 -0.3007,-0.013 z M 0.14723194,9.5202209 a 0.2899,0.2899 0 0 1 -0.1006,-0.0547 c -0.0443,-0.0393 -0.0469999967,-0.2465 -0.04659999666,-3.6404 2e-4,-1.9793 0.0092999967,-3.612 0.02009999666,-3.6282 0.0512,-0.0767 0.1504,-0.0912 0.6196,-0.0912 0.2655,0 0.50209996,0.0076 0.52589996,0.0165 0.0673,0.0259 0.0917,0.0922 0.1635,0.4449 0.0368,0.1806 0.076,0.3374 0.087,0.3484 0.011,0.011 0.0556,-0.049 0.0991,-0.1332 0.0936,-0.1813 0.3767,-0.4753 0.561,-0.5827 0.3221,-0.1876 0.6802,-0.2586 1.0303,-0.2041 0.8145,0.1266 1.3815,0.8216 1.6334,2.0022 0.0627,0.2936 0.0792,1.2937 0.0277,1.6773 -0.0912,0.6796 -0.3508,1.3098 -0.6885,1.6715 -0.3439,0.3682 -0.656,0.5237 -1.1006,0.5481 -0.3188,0.0175 -0.5242,-0.0196 -0.766,-0.1383 -0.217,-0.1066 -0.466,-0.3395 -0.6223,-0.582 -0.0556,-0.0864 -0.1102,-0.157 -0.1213,-0.1572 -0.011,-10e-5 -0.02,0.5243 -0.02,1.1654 0,0.6524 -0.011,1.1945 -0.025,1.2312 -0.0406,0.1068 -0.1526,0.1261 -0.71039996,0.1227 -0.282,-0.0019 -0.5368,-0.0086 -0.5663,-0.0162 z m 2.47069996,-2.8972 c 0.1947,-0.0663 0.383,-0.2667 0.4874,-0.5186 0.1185,-0.286 0.1712,-0.5725 0.1877,-1.0198 0.0287,-0.7791 -0.1484,-1.4474 -0.451,-1.702 -0.0966,-0.0813 -0.3467,-0.1766 -0.4635,-0.1766 -0.5822,0 -0.9571,0.6662 -0.9563,1.6994 6e-4,0.7365 0.1469,1.263 0.4295,1.5457 0.2025,0.2025 0.4883,0.2666 0.7662,0.1719 z m 19.2198001,1.2532 c -0.9286,-0.1678 -1.6543,-0.8886 -1.9088,-1.8962 -0.3432,-1.3585 0.0316,-2.7882 0.918,-3.502 0.837,-0.674 2.0391,-0.6726 2.8057,0.0038 0.3352,0.2955 0.5295,0.5755 0.7155,1.0309 0.154,0.3772 0.2159,0.6988 0.2333,1.2146 0.0081,0.2387 0.0071,0.4643 -0.0022,0.5013 -0.0399,0.159 0.0418,0.1516 -1.6676,0.1516 -0.8616,0 -1.573,0.0104 -1.5808,0.023 -0.029,0.047 0.0683,0.5245 0.1503,0.737 0.108,0.2802 0.3095,0.4965 0.5184,0.5566 0.4544,0.1308 0.8854,-0.0736 1.0306,-0.4889 0.0995,-0.2842 0.1133,-0.3034 0.2252,-0.3128 0.0839,-0.0067 0.6994,0.115 1.0735,0.2126 0.1559,0.0407 0.1706,0.1146 0.073,0.3674 -0.1135,0.2936 -0.256,0.5247 -0.4535,0.7356 -0.4387,0.4683 -0.9101,0.6657 -1.6268,0.681 -0.2066,0.0048 -0.4333,-0.0019 -0.5038,-0.0151 z m 1.2687,-3.5442 c 0,-0.271 -0.1724,-0.7676 -0.3319,-0.9562 -0.1098,-0.13 -0.3202,-0.2237 -0.4986,-0.2223 -0.2844,0.0019 -0.5005,0.1345 -0.6575,0.4025 -0.103,0.1757 -0.2176,0.5125 -0.2452,0.7208 l -0.0182,0.1368 h 1.7514 z m -17.5328001,3.382 -0.0725,-0.057 v -2.7321 c 0,-2.5066 0.0036,-2.7352 0.0443,-2.769 0.0593,-0.0493 1.0006,-0.0686 1.1112,-0.0228 0.0932,0.0386 0.1183,0.1011 0.188,0.469 0.0308,0.1624 0.0642,0.3038 0.0744,0.3143 0.0101,0.0104 0.0604,-0.062 0.1118,-0.161 0.1138,-0.2195 0.3915,-0.5093 0.579,-0.604 0.3128,-0.158 0.77,-0.1998 1.1207,-0.1026 0.2217,0.0614 0.3131,0.1385 0.3131,0.264 0,0.0898 -0.1788,0.8432 -0.2582,1.088 -0.0604,0.186 -0.0992,0.1964 -0.364,0.0973 -0.3125,-0.117 -0.4712,-0.1573 -0.6205,-0.1576 -0.4033,-10e-4 -0.657,0.2112 -0.788,0.6592 -0.0412,0.1411 -0.0481,0.3571 -0.0612,1.9222 -0.0117,1.394 -0.0221,1.7705 -0.0496,1.798 -0.026,0.0261 -0.1894,0.037 -0.6455,0.043 -0.5881,0.0076 -0.6133,0.0057 -0.683,-0.049 z m 3.9635,0.028 c -0.0311,-0.0126 -0.0637,-0.0414 -0.0724,-0.0641 -0.0116,-0.0303 -0.0296,-4.92 -0.02,-5.4173 0.0027,-0.1377 0.0875,-0.155 0.7608001,-0.155 0.6647,0 0.679,0.0038 0.6903,0.1744 0.0029,0.0444 0.004,1.2731 0.0025,2.7307 -0.003,2.6125 -0.0036,2.651 -0.0565,2.7039 -0.0506,0.0506 -0.0883,0.0535 -0.6508,0.0519 -0.3285001,-10e-4 -0.6227001,-0.012 -0.6538001,-0.0246 z m 2.3576001,-0.002 c -0.0335,-0.0133 -0.0727,-0.0557 -0.0873,-0.0939 -0.0167,-0.044 -0.0264,-1.0531 -0.0264,-2.7464 0,-2.2687 0.0058,-2.6848 0.038,-2.729 0.035,-0.0478 0.0803,-0.0528 0.552,-0.0613 0.3476,-0.0066 0.538,8e-4 0.5887,0.0218 0.0809,0.0335 0.0908,0.0625 0.1864,0.5434 0.0256,0.1287 0.0542,0.2416 0.0636,0.251 0.0094,0.0095 0.0594,-0.0669 0.111,-0.1695 0.1685,-0.3344 0.446,-0.5852 0.7839,-0.7086 0.126,-0.046 0.2226,-0.0585 0.4675,-0.0605 0.3287,-0.0028 0.4604,0.027 0.7378,0.166 0.1812,0.0907 0.4652,0.3819 0.5883,0.603 0.0555,0.0997 0.1089,0.1809 0.1187,0.1805 0.0098,-4e-4 0.0565,-0.0577 0.1038,-0.1275 0.2485,-0.3665 0.6096,-0.6551 0.956,-0.764 0.272,-0.0855 0.707,-0.0843 0.9625,0.0029 0.5491,0.1867 0.8732,0.5958 1.0752,1.3572 0.056,0.2108 0.0578,0.2728 0.0668,2.2296 0.008,1.7344 0.0038,2.0202 -0.03,2.0665 -0.037,0.0505 -0.0755,0.0542 -0.6528,0.062 -0.5888,0.0087 -0.6165,0.0068 -0.685,-0.0477 l -0.0715,-0.056 -0.009,-1.8176 c -0.0089,-1.7914 -0.0099,-1.82 -0.0683,-1.9942 -0.1205,-0.3592 -0.3173,-0.5165 -0.6503,-0.5194 -0.3369,-0.0029 -0.5748,0.1788 -0.7,0.5351 -0.0893,0.254 -0.1047,0.5782 -0.1049,2.2074 -2e-4,1.5542 -0.0014,1.5913 -0.0539,1.6438 -0.0504,0.0504 -0.0894,0.0536 -0.6458,0.0536 -0.6052,0 -0.6706,-0.0097 -0.723,-0.1076 -0.0189,-0.0353 -0.028,-0.6098 -0.0275,-1.737 7e-4,-1.6872 -0.0085,-1.8915 -0.0976,-2.1651 -0.1262,-0.3872 -0.5996,-0.5531 -0.9828,-0.3446 -0.245,0.1334 -0.375,0.408 -0.4223,0.8923 -0.0136,0.1402 -0.0251,0.952 -0.0255,1.8038 l -7e-4,1.5488 -0.0588,0.0547 c -0.0555,0.0516 -0.0909,0.0546 -0.6374,0.053 -0.3182,-10e-4 -0.606,-0.0127 -0.6394,-0.0262 z m -1.9655001,-6.0624 c -0.2343,-0.0715 -0.442,-0.2525 -0.5411,-0.4714 -0.0859,-0.1896 -0.0857,-0.53300005 5e-4,-0.72720005 0.076,-0.1714 0.2453,-0.3392 0.4199,-0.4164 0.1911,-0.0845 0.5338001,-0.0834 0.7318001,0.0028 0.1939,0.084 0.3845,0.2958 0.448,0.4977 0.0645,0.2049 0.0447,0.49200005 -0.0478,0.69400005 -0.081,0.177 -0.2817,0.346 -0.4811,0.4052 -0.1437,0.0426 -0.4155,0.0507 -0.5302001,0.0157 z"
     fill="#ffffff"
     id="path1" />
</svg>
