<?xml version="1.0" encoding="UTF-8" standalone="no"?>
<svg
   id="svg"
   width="366.87402"
   height="66.138687"
   viewBox="0 0 366.87402 66.138687"
   version="1.1"
   xmlns="http://www.w3.org/2000/svg"
   xmlns:svg="http://www.w3.org/2000/svg">
  <defs
     id="defs1" />
  <g
     id="svgg"
     transform="translate(-17.823728,-15.030313)">
    <path
       id="path0"
       d="m 48.833,15.191 c -2.328,0.238 -3.675,0.464 -6,1.008 -3.743,0.875 -9.562,3.699 -12.266,5.954 -0.285,0.237 -0.847,0.693 -1.25,1.014 -2.134,1.699 -5.039,5.171 -6.485,7.75 -0.557,0.993 -1.598,3.075 -1.918,3.833 -0.155,0.367 -0.347,0.817 -0.427,1 -0.635,1.453 -1.699,5.312 -2.136,7.75 -1.247,6.943 -0.253,14.736 2.673,20.971 0.616,1.312 2.379,4.349 2.629,4.529 0.064,0.046 0.397,0.456 0.74,0.911 2.739,3.628 7.749,7.315 12.107,8.909 0.321,0.118 0.733,0.274 0.917,0.347 0.493,0.197 1.238,0.435 2.083,0.666 0.412,0.113 0.938,0.264 1.167,0.335 3.807,1.187 12.128,1.347 16.916,0.326 2.928,-0.624 5.602,-1.524 6.172,-2.077 0.216,-0.21 0.53,-1.271 0.666,-2.25 0.057,-0.413 0.167,-1.088 0.244,-1.5 0.077,-0.413 0.216,-1.2 0.31,-1.75 0.094,-0.55 0.369,-2.125 0.612,-3.5 1.235,-6.98 1.233,-6.804 0.062,-6.281 -2.207,0.984 -5.205,1.959 -7.232,2.351 -0.55,0.106 -1.32,0.265 -1.711,0.353 -0.92,0.207 -5.657,0.207 -6.579,0 -0.391,-0.087 -1.264,-0.279 -1.94,-0.426 C 42.772,64.24 38.797,60.848 36.665,55.583 35.301,52.214 35.232,47.668 36.473,43 36.859,41.547 37.865,39.367 38.602,38.386 38.821,38.094 39,37.811 39,37.757 c 0,-0.113 0.8,-1.029 1.669,-1.912 1.733,-1.762 3.854,-3.076 6.748,-4.184 4.461,-1.707 11.014,-1.573 16.166,0.332 0.55,0.203 1.15,0.413 1.334,0.467 0.612,0.179 3.321,1.588 4.25,2.211 1.927,1.291 2.207,1.33 2.399,0.329 0.252,-1.319 0.442,-2.291 0.585,-3 0.083,-0.413 0.229,-1.163 0.324,-1.667 0.095,-0.504 0.369,-1.929 0.608,-3.166 0.24,-1.238 0.501,-2.625 0.58,-3.084 0.079,-0.458 0.181,-0.946 0.227,-1.083 0.319,-0.965 0.272,-1.657 -0.142,-2.07 -0.366,-0.366 -3.121,-2.097 -3.338,-2.097 -0.044,0 -0.436,-0.157 -0.87,-0.35 -1.3,-0.576 -1.407,-0.617 -2.707,-1.049 -2.735,-0.909 -4.449,-1.328 -7.916,-1.933 -2.735,-0.477 -7.127,-0.612 -10.084,-0.31 m 294.796,11.462 c -0.025,5.676 -0.108,10.382 -0.184,10.458 -0.077,0.077 -5.309,0.159 -11.627,0.184 l -11.488,0.045 0.044,8.872 0.043,8.871 11.444,0.084 c 6.295,0.045 11.507,0.145 11.584,0.222 0.076,0.076 0.159,5.495 0.184,12.041 l 0.046,11.903 h 8.913 8.912 v -11.75 c 0,-11.527 0.006,-11.756 0.333,-12.083 0.327,-0.327 0.556,-0.333 11.324,-0.333 h 10.991 l 0.259,-0.371 C 384.78,54.264 384.801,37.915 384.43,37.407 384.201,37.094 383.836,37.081 372.888,37 L 361.583,36.917 361.54,26.625 361.497,16.333 h -8.911 -8.912 l -0.045,10.32 M 84.5,48.243 c -8.433,16.909 -15.333,30.822 -15.333,30.918 0,0.121 2.864,0.162 9.208,0.132 l 9.208,-0.043 0.533,-1.083 c 0.872,-1.772 2.717,-5.678 2.717,-5.75 0,-0.282 1.563,-3.256 1.845,-3.511 0.344,-0.311 0.742,-0.324 11.214,-0.37 l 10.858,-0.048 0.292,0.358 c 0.16,0.197 0.291,0.513 0.291,0.702 0,0.19 0.07,0.575 0.156,0.857 0.255,0.841 1.471,5.795 2.099,8.553 l 0.085,0.375 h 7.82 c 4.727,0 7.859,-0.062 7.918,-0.157 0.085,-0.137 -0.065,-0.954 -0.936,-5.093 -0.096,-0.458 -0.243,-1.133 -0.326,-1.5 -0.083,-0.366 -0.229,-1.041 -0.324,-1.5 -0.095,-0.458 -0.241,-1.133 -0.325,-1.5 -0.084,-0.366 -0.226,-1.041 -0.316,-1.5 -0.15,-0.766 -0.855,-4.081 -1.205,-5.666 -0.081,-0.367 -0.225,-1.042 -0.321,-1.5 -0.095,-0.459 -0.244,-1.152 -0.332,-1.542 -0.088,-0.39 -0.224,-1.027 -0.304,-1.417 -0.08,-0.389 -0.346,-1.645 -0.592,-2.791 -0.649,-3.028 -0.785,-3.674 -0.93,-4.417 -0.072,-0.367 -0.222,-1.079 -0.333,-1.583 -0.112,-0.504 -0.27,-1.236 -0.352,-1.625 -0.082,-0.39 -0.223,-1.046 -0.315,-1.459 -0.092,-0.412 -0.232,-1.068 -0.312,-1.458 -0.315,-1.529 -1.065,-5.077 -1.207,-5.708 -0.082,-0.367 -0.227,-1.042 -0.323,-1.5 -0.095,-0.459 -0.244,-1.152 -0.332,-1.542 -0.088,-0.39 -0.231,-1.027 -0.319,-1.417 -0.087,-0.389 -0.233,-1.083 -0.323,-1.541 -0.09,-0.459 -0.365,-1.771 -0.612,-2.917 -0.247,-1.146 -0.514,-2.402 -0.594,-2.792 -0.08,-0.389 -0.216,-1.027 -0.304,-1.416 -0.088,-0.39 -0.244,-1.121 -0.348,-1.625 -0.982,-4.775 -1.317,-6.205 -1.504,-6.43 -0.165,-0.2 -1.781,-0.237 -10.342,-0.237 H 99.834 L 84.5,48.243 m 65.398,-30.58 c -0.444,0.18 -0.564,0.48 -0.749,1.879 -0.082,0.618 -0.227,1.668 -0.321,2.333 -0.095,0.665 -0.243,1.733 -0.328,2.375 -0.085,0.642 -0.233,1.71 -0.328,2.375 -0.094,0.665 -0.241,1.715 -0.326,2.333 -0.322,2.349 -1.011,7.288 -1.192,8.542 -0.086,0.596 -0.233,1.646 -0.328,2.333 -0.094,0.688 -0.245,1.775 -0.333,2.417 -0.089,0.642 -0.2,1.467 -0.246,1.833 -0.047,0.367 -0.156,1.154 -0.243,1.75 -0.194,1.323 -0.384,2.687 -0.919,6.584 -0.453,3.296 -0.683,4.938 -0.92,6.583 -0.192,1.332 -0.337,2.399 -0.431,3.167 -0.04,0.32 -0.143,1.07 -0.23,1.666 -0.216,1.474 -0.435,3.043 -0.922,6.584 -0.653,4.756 -0.75,5.434 -0.938,6.583 -0.097,0.596 -0.15,1.346 -0.119,1.667 l 0.058,0.583 8.035,0.043 8.034,0.044 0.162,-0.627 c 0.089,-0.345 0.243,-1.227 0.342,-1.96 0.099,-0.733 0.335,-2.421 0.524,-3.75 0.323,-2.281 0.503,-3.586 0.815,-5.917 0.073,-0.55 0.182,-1.3 0.241,-1.666 0.102,-0.632 0.213,-1.392 0.597,-4.084 0.092,-0.641 0.244,-1.673 0.338,-2.291 0.184,-1.211 0.745,-5.174 1.021,-7.209 0.264,-1.95 0.433,-3.148 0.628,-4.458 0.299,-2.006 0.505,-3.479 0.662,-4.724 0.169,-1.341 0.362,-1.664 0.757,-1.269 0.144,0.144 0.261,0.294 0.261,0.335 0,0.04 0.398,0.777 0.885,1.637 0.487,0.859 1.115,1.975 1.395,2.479 0.28,0.504 0.808,1.442 1.173,2.084 0.366,0.641 0.852,1.504 1.082,1.916 0.23,0.413 0.569,1.013 0.754,1.334 0.858,1.489 1.866,3.277 2.983,5.291 0.242,0.436 0.493,0.867 0.56,0.959 0.066,0.091 0.366,0.616 0.667,1.166 0.301,0.55 0.772,1.413 1.048,1.917 0.275,0.504 0.555,0.992 0.621,1.083 0.067,0.092 0.318,0.523 0.56,0.959 1.117,2.014 2.125,3.802 2.983,5.291 0.185,0.321 0.524,0.921 0.754,1.334 0.23,0.412 0.716,1.275 1.082,1.916 0.365,0.642 0.893,1.579 1.173,2.084 0.28,0.504 0.908,1.62 1.395,2.479 0.487,0.86 0.885,1.584 0.885,1.609 0,0.025 0.29,0.521 0.644,1.103 l 0.643,1.059 8.129,0.043 c 9.078,0.048 8.567,0.115 8.579,-1.117 0.003,-0.315 0.078,-0.99 0.167,-1.5 0.089,-0.509 0.241,-1.489 0.339,-2.176 0.098,-0.688 0.246,-1.7 0.328,-2.25 0.263,-1.754 0.499,-3.423 0.921,-6.5 0.226,-1.65 0.487,-3.507 0.581,-4.125 0.093,-0.619 0.244,-1.65 0.336,-2.292 0.436,-3.053 0.522,-3.652 0.662,-4.583 0.263,-1.754 0.499,-3.423 0.921,-6.5 0.226,-1.65 0.487,-3.507 0.581,-4.125 0.093,-0.619 0.244,-1.65 0.336,-2.292 0.436,-3.053 0.522,-3.652 0.662,-4.583 0.263,-1.754 0.499,-3.423 0.921,-6.5 0.226,-1.65 0.487,-3.507 0.581,-4.125 0.093,-0.619 0.244,-1.65 0.336,-2.292 0.297,-2.079 0.491,-3.404 0.587,-4 0.051,-0.321 0.137,-1.052 0.189,-1.625 l 0.096,-1.042 -2.061,-0.013 c -1.134,-0.008 -4.799,-0.071 -8.145,-0.139 -7.057,-0.145 -6.535,-0.255 -6.803,1.431 -0.407,2.558 -0.811,5.312 -1.39,9.471 -0.089,0.642 -0.235,1.655 -0.324,2.25 -0.205,1.371 -0.44,3.017 -0.635,4.459 -0.084,0.618 -0.192,1.35 -0.241,1.625 -0.049,0.275 -0.168,1.062 -0.265,1.75 -1.027,7.27 -1.283,9.021 -1.513,10.343 -0.089,0.51 -0.163,1.147 -0.165,1.417 -0.004,0.774 -0.424,1.985 -0.709,2.041 -0.215,0.042 -1.288,-1.229 -1.288,-1.526 0,-0.045 -0.324,-0.631 -0.72,-1.303 -0.397,-0.672 -0.95,-1.635 -1.23,-2.139 -0.436,-0.783 -1.264,-2.233 -2.761,-4.833 -0.185,-0.321 -0.523,-0.921 -0.752,-1.334 -0.228,-0.412 -0.469,-0.825 -0.535,-0.916 -0.067,-0.092 -0.345,-0.58 -0.62,-1.084 -0.275,-0.504 -0.651,-1.179 -0.836,-1.5 -0.938,-1.624 -2.298,-4.001 -2.669,-4.666 -0.231,-0.413 -0.663,-1.163 -0.96,-1.667 -0.298,-0.504 -0.728,-1.254 -0.956,-1.667 -0.698,-1.262 -1.222,-2.185 -2.132,-3.75 -0.944,-1.623 -1.217,-2.1 -1.861,-3.25 -0.232,-0.412 -0.581,-1.031 -0.778,-1.375 -0.196,-0.343 -0.514,-0.906 -0.706,-1.25 -1.125,-2.012 -1.372,-2.392 -1.653,-2.542 -0.384,-0.206 -16.924,-0.208 -17.433,-0.003 m 90.156,0.226 c -0.167,0.215 -3.417,6.608 -7.221,14.209 -3.804,7.6 -6.954,13.856 -7,13.902 -0.145,0.145 -16.681,33.244 -16.673,33.375 0.009,0.162 18.028,0.159 18.282,-0.003 0.177,-0.112 0.596,-0.95 2.308,-4.622 0.342,-0.733 0.958,-2.046 1.369,-2.917 0.41,-0.871 0.829,-1.77 0.93,-2 0.101,-0.229 0.36,-0.66 0.576,-0.958 l 0.392,-0.542 h 10.556 c 12.539,0 11.146,-0.325 11.772,2.75 0.093,0.459 0.238,1.134 0.322,1.5 0.083,0.367 0.23,1.042 0.325,1.5 0.095,0.459 0.239,1.134 0.32,1.5 0.081,0.367 0.271,1.267 0.423,2 0.151,0.734 0.346,1.502 0.433,1.709 l 0.158,0.375 h 8.004 c 7.512,0 8.003,-0.018 8.001,-0.292 -0.001,-0.16 -0.154,-1.004 -0.339,-1.875 -0.186,-0.871 -0.41,-1.94 -0.498,-2.375 -0.229,-1.127 -0.499,-2.427 -0.675,-3.25 -0.084,-0.39 -0.218,-1.027 -0.299,-1.417 -0.348,-1.683 -1.404,-6.765 -1.532,-7.375 -0.077,-0.366 -0.225,-1.079 -0.329,-1.583 -0.103,-0.504 -0.257,-1.235 -0.34,-1.625 -0.381,-1.775 -0.466,-2.182 -0.633,-3.042 -0.098,-0.504 -0.368,-1.816 -0.601,-2.916 -0.232,-1.1 -0.504,-2.413 -0.603,-2.917 -0.188,-0.959 -0.364,-1.799 -0.656,-3.125 -0.171,-0.775 -0.308,-1.444 -0.64,-3.125 -0.091,-0.458 -0.359,-1.733 -0.597,-2.833 -0.238,-1.1 -0.512,-2.413 -0.609,-2.917 -0.183,-0.943 -0.351,-1.747 -0.654,-3.125 -0.167,-0.755 -0.266,-1.238 -0.641,-3.125 -0.092,-0.458 -0.435,-2.108 -0.763,-3.667 -0.327,-1.558 -0.636,-3.058 -0.684,-3.333 -0.049,-0.275 -0.154,-0.762 -0.234,-1.083 -0.08,-0.321 -0.232,-1.034 -0.337,-1.584 -0.106,-0.55 -0.256,-1.262 -0.335,-1.583 -0.079,-0.321 -0.27,-1.221 -0.423,-2 -0.439,-2.221 0.743,-2 -10.673,-2 h -9.878 l -0.304,0.389 m 49.448,0.023 c -0.087,0.227 -0.24,1.034 -0.341,1.792 -0.1,0.759 -0.256,1.867 -0.346,2.463 -0.09,0.595 -0.234,1.608 -0.321,2.25 -0.086,0.641 -0.197,1.429 -0.245,1.75 -0.049,0.321 -0.162,1.089 -0.252,1.708 -0.09,0.619 -0.241,1.631 -0.336,2.25 -0.095,0.619 -0.401,2.737 -0.681,4.708 -0.28,1.971 -0.581,4.071 -0.669,4.667 -0.088,0.596 -0.23,1.608 -0.317,2.25 -0.086,0.642 -0.197,1.429 -0.245,1.75 -0.049,0.321 -0.162,1.09 -0.252,1.708 -0.09,0.619 -0.241,1.632 -0.336,2.25 -0.095,0.619 -0.401,2.738 -0.681,4.709 -0.28,1.97 -0.581,4.07 -0.669,4.666 -0.088,0.596 -0.23,1.609 -0.317,2.25 -0.086,0.642 -0.197,1.429 -0.245,1.75 -0.049,0.321 -0.162,1.09 -0.252,1.709 -0.09,0.618 -0.241,1.631 -0.336,2.25 -0.206,1.348 -1.129,7.815 -1.349,9.458 -0.086,0.642 -0.229,1.654 -0.317,2.25 -0.413,2.773 -0.416,2.641 0.078,2.83 0.296,0.112 6.5,0.17 18.182,0.17 h 17.733 l 0.207,-0.375 c 0.114,-0.206 0.259,-0.863 0.323,-1.458 0.065,-0.596 0.315,-2.546 0.557,-4.334 0.468,-3.463 0.714,-5.378 0.87,-6.791 l 0.096,-0.875 h -9.175 c -10.15,0 -9.752,0.043 -9.604,-1.043 0.04,-0.297 0.26,-1.966 0.49,-3.707 0.229,-1.742 0.491,-3.673 0.582,-4.292 0.365,-2.475 0.498,-3.404 0.579,-4.042 0.098,-0.768 0.335,-2.484 0.576,-4.166 0.092,-0.642 0.242,-1.729 0.332,-2.417 0.09,-0.687 0.284,-2.075 0.431,-3.083 0.146,-1.009 0.34,-2.396 0.43,-3.084 0.19,-1.448 0.447,-3.322 0.651,-4.75 0.142,-0.987 0.337,-2.394 0.649,-4.666 0.185,-1.352 0.399,-2.893 0.775,-5.584 0.452,-3.233 0.581,-4.2 0.737,-5.539 0.082,-0.708 0.192,-1.357 0.243,-1.44 0.198,-0.319 -0.663,-0.354 -8.755,-0.354 h -8.324 l -0.156,0.412 M 247.96,35.375 c 0.101,0.206 0.223,0.6 0.27,0.875 0.091,0.528 0.337,1.723 0.582,2.833 0.161,0.732 0.935,4.346 1.213,5.667 0.096,0.458 0.243,1.133 0.326,1.5 0.165,0.728 0.374,1.707 0.641,3 0.095,0.458 0.239,1.133 0.32,1.5 0.646,2.924 0.867,4.144 0.789,4.348 -0.078,0.203 -1.07,0.233 -6.555,0.196 l -6.463,-0.044 -0.054,-0.473 c -0.03,-0.262 0.129,-0.857 0.357,-1.333 0.365,-0.764 0.939,-2.05 1.985,-4.444 0.18,-0.413 0.498,-1.125 0.708,-1.583 1.003,-2.196 1.254,-2.766 1.254,-2.849 0,-0.049 0.225,-0.572 0.5,-1.162 0.275,-0.59 0.725,-1.555 1,-2.145 0.275,-0.591 0.5,-1.114 0.5,-1.163 0,-0.049 0.196,-0.522 0.435,-1.052 0.238,-0.529 0.568,-1.263 0.733,-1.629 1.243,-2.773 1.159,-2.655 1.459,-2.042 m -140.069,0.583 c 0.056,0.344 0.171,0.925 0.255,1.292 0.085,0.367 0.244,1.079 0.354,1.583 0.11,0.504 0.258,1.179 0.329,1.5 0.071,0.321 0.286,1.296 0.476,2.167 0.191,0.871 0.465,2.108 0.608,2.75 0.143,0.642 0.341,1.542 0.44,2 0.099,0.458 0.24,1.096 0.314,1.417 0.073,0.32 0.223,0.996 0.333,1.5 0.11,0.504 0.26,1.179 0.334,1.5 0.648,2.835 0.705,3.209 0.529,3.472 -0.163,0.242 -12.632,0.107 -13.033,-0.141 -0.134,-0.083 -0.144,-0.216 -0.03,-0.434 0.321,-0.616 2.033,-4.395 2.033,-4.488 0,-0.036 0.179,-0.462 0.398,-0.946 0.219,-0.484 0.565,-1.255 0.768,-1.713 0.204,-0.459 0.587,-1.308 0.852,-1.887 0.265,-0.579 0.482,-1.09 0.482,-1.135 0,-0.046 0.233,-0.584 0.517,-1.197 0.284,-0.613 0.58,-1.265 0.659,-1.448 0.079,-0.183 0.409,-0.92 0.734,-1.637 0.325,-0.717 0.59,-1.341 0.59,-1.386 0,-0.045 0.216,-0.545 0.48,-1.113 0.263,-0.567 0.604,-1.312 0.757,-1.656 0.154,-0.343 0.378,-0.625 0.499,-0.625 0.125,0 0.264,0.27 0.322,0.625"
       stroke="none"
       fill="#fafafa"
       fill-rule="evenodd"
       style="display:inline" />
  </g>
</svg>
