<svg version="1.0" xmlns="http://www.w3.org/2000/svg" width="1024.000000pt" height="1304.000000pt" viewBox="0 0 1024.000000 1304.000000" preserveAspectRatio="xMidYMid meet">
    <g transform="translate(0.000000,1304.000000) scale(0.100000,-0.100000)" fill="#000000" stroke="none">
        <path d="M6195 12978 c-16 -5 -59 -20 -95 -32 -36 -13 -83 -29 -105 -36 -22 -7 -53 -18 -70 -25 -175 -76 -263 -93 -391 -77 -116 15 -139 7 -128 -41 3 -17 10 -38 14 -47 4 -8 21 -42 36 -75 37 -78 83 -128 167 -182 74 -47 79 -48 222 -32 103 12 210 42 302 85 28 13 57 24 62 24 15 0 14 -61 -4 -160 -35 -188 -51 -290 -65 -400 -5 -36 -16 -103 -25 -150 -9 -47 -20 -110 -25 -140 -4 -30 -16 -100 -24 -155 -9 -55 -21 -127 -26 -160 -18 -115 -52 -242 -109 -415 -64 -191 -82 -251 -106 -345 -13 -49 -31 -110 -40 -135 -10 -25 -21 -61 -26 -80 -4 -19 -11 -46 -14 -60 -6 -23 -2 -28 44 -48 l51 -22 0 -180 c0 -205 7 -191 -100 -210 -88 -16 -139 -31 -149 -44 -8 -11 12 -184 44 -381 9 -55 19 -118 21 -140 7 -62 26 -149 37 -163 7 -8 24 -10 57 -6 45 6 48 5 54 -20 3 -14 2 -76 -3 -138 -6 -62 -13 -241 -16 -398 -8 -363 -20 -579 -33 -592 -5 -5 -31 -8 -57 -6 l-48 3 -22 65 c-12 36 -31 85 -43 109 -12 25 -22 52 -22 62 0 9 -7 30 -15 45 -8 16 -15 41 -15 57 0 15 -4 27 -10 27 -5 0 -10 7 -10 16 0 9 -13 58 -29 108 -16 50 -35 111 -41 136 -7 25 -17 59 -21 75 -24 85 -39 161 -39 204 0 26 -4 51 -9 56 -9 10 -24 116 -41 290 -5 44 -13 98 -19 120 -6 22 -11 67 -11 99 0 58 1 60 55 117 48 50 55 63 55 97 0 71 -12 104 -55 148 -41 44 -42 44 -111 44 -76 0 -132 -24 -141 -61 -3 -10 -9 -19 -13 -19 -5 0 -11 -15 -15 -32 -3 -18 -11 -43 -17 -54 -13 -27 4 -61 61 -126 l42 -47 -7 -83 c-3 -46 -10 -98 -16 -117 -6 -19 -12 -70 -14 -115 -2 -45 -8 -97 -14 -116 -5 -19 -10 -55 -10 -80 0 -25 -6 -54 -13 -65 -8 -11 -14 -44 -14 -73 0 -30 -6 -59 -12 -65 -6 -6 -11 -32 -11 -58 0 -26 -6 -54 -12 -61 -7 -7 -14 -29 -16 -48 -1 -19 -7 -36 -12 -38 -6 -2 -10 -13 -10 -25 0 -23 -31 -111 -43 -123 -4 -4 -7 -18 -7 -30 0 -13 -5 -26 -10 -29 -6 -3 -19 -26 -30 -50 -11 -24 -24 -47 -30 -50 -5 -3 -10 -15 -10 -26 0 -14 -6 -19 -17 -17 -26 5 -32 92 -31 443 0 296 15 506 38 529 6 6 10 20 10 32 0 12 7 38 15 57 24 57 20 112 -10 134 -23 17 -24 24 -25 118 -2 182 -4 171 35 189 35 17 47 48 27 72 -4 5 -17 36 -27 69 -11 33 -25 71 -31 84 -7 13 -10 29 -8 36 3 6 -2 18 -11 25 -8 7 -15 22 -15 34 0 12 -4 26 -9 32 -4 5 -16 34 -26 64 -10 30 -28 82 -41 115 -33 89 -70 193 -89 255 -9 30 -27 84 -39 120 -13 36 -33 103 -44 150 -11 47 -28 112 -37 145 -33 114 -40 159 -64 385 -22 206 -31 296 -36 380 -3 47 -9 123 -15 170 -5 47 -9 130 -9 186 -1 127 -10 140 -92 125 -60 -10 -207 -45 -284 -67 -88 -25 -118 -33 -200 -49 -200 -41 -268 -63 -278 -89 -11 -27 26 -54 123 -91 25 -10 54 -21 65 -25 106 -41 250 -58 513 -59 l103 -1 -5 -37 c-4 -39 -7 -58 -31 -203 -7 -47 -19 -125 -25 -175 -6 -49 -17 -124 -25 -165 -15 -76 -17 -89 -35 -215 -6 -38 -14 -83 -19 -100 -5 -16 -14 -64 -20 -105 -6 -41 -18 -115 -27 -165 -8 -49 -21 -133 -29 -185 -18 -113 -31 -190 -50 -285 -7 -38 -19 -104 -25 -145 -6 -41 -17 -106 -26 -145 -16 -78 -18 -114 -6 -133 10 -15 66 -32 109 -32 38 0 41 -10 45 -155 3 -106 -2 -125 -31 -125 -21 0 -51 -30 -51 -52 0 -9 23 -73 50 -142 l51 -125 -4 -468 c-3 -257 -7 -493 -11 -523 -4 -30 -8 -197 -9 -370 -1 -203 -6 -314 -12 -313 -10 1 -30 58 -55 153 -20 77 -42 154 -51 175 -4 11 -13 44 -19 72 -12 53 -12 53 24 95 53 62 55 143 3 196 -60 63 -117 77 -184 46 -57 -28 -83 -71 -83 -141 0 -53 3 -63 35 -100 32 -37 35 -47 35 -103 0 -35 -6 -73 -15 -91 -9 -16 -13 -33 -11 -38 3 -5 -1 -31 -9 -57 -8 -27 -15 -70 -15 -95 0 -25 -3 -49 -7 -53 -11 -11 -42 -138 -43 -176 0 -43 -10 -81 -19 -76 -3 2 -7 -21 -7 -51 -1 -30 -7 -60 -13 -66 -6 -6 -11 -34 -11 -62 0 -27 -7 -63 -15 -79 -8 -15 -15 -41 -15 -57 0 -16 -4 -37 -10 -47 -13 -24 -75 -268 -87 -344 -5 -35 -4 -37 33 -47 22 -6 45 -11 52 -11 10 0 12 -71 10 -337 l-3 -338 -131 -3 -132 -3 -6 33 c-3 18 -6 260 -5 537 l0 504 23 31 c21 27 24 47 31 161 4 71 10 132 15 135 4 3 8 85 9 183 1 181 8 217 39 217 22 1 62 34 62 53 0 8 -29 58 -65 111 -36 53 -65 99 -65 101 0 3 -22 40 -49 84 -27 43 -78 131 -114 197 -35 65 -92 167 -125 226 -77 138 -124 235 -155 323 -13 39 -35 95 -49 125 -85 183 -86 187 -93 610 -6 372 -17 543 -34 564 -17 20 -42 11 -356 -139 -142 -67 -202 -95 -292 -134 -149 -64 -156 -88 -33 -111 36 -6 85 -16 110 -20 93 -18 278 -10 470 19 38 6 57 5 63 -3 10 -15 0 -496 -12 -568 -6 -37 -23 -77 -48 -115 -20 -32 -42 -67 -48 -78 -6 -11 -42 -68 -78 -128 -37 -59 -67 -110 -67 -112 0 -3 -22 -38 -50 -79 -27 -41 -50 -78 -50 -82 0 -3 -19 -34 -42 -68 -34 -50 -97 -154 -182 -301 -7 -11 -28 -45 -48 -76 -20 -31 -49 -78 -64 -105 -15 -27 -49 -82 -75 -122 -26 -40 -51 -82 -54 -92 -7 -22 19 -50 45 -50 11 0 23 -8 28 -17 5 -10 12 -146 16 -303 4 -157 10 -300 14 -319 6 -27 17 -38 55 -58 l47 -25 0 -82 c0 -44 -5 -297 -10 -560 l-10 -479 -27 -36 c-14 -20 -54 -67 -87 -106 -34 -38 -88 -104 -121 -145 -33 -41 -63 -77 -66 -80 -3 -3 -24 -30 -46 -60 -22 -30 -52 -66 -66 -80 -15 -14 -27 -29 -27 -34 0 -4 -22 -34 -48 -65 -27 -31 -57 -69 -68 -86 -10 -16 -22 -33 -27 -36 -5 -4 -6 -16 -2 -28 4 -14 15 -21 33 -21 46 0 56 -14 59 -82 2 -56 7 -140 29 -528 7 -113 2 -122 -78 -124 l-53 -1 1 125 c1 69 5 200 9 292 l8 167 -24 10 c-13 6 -78 18 -144 26 -66 9 -128 18 -137 21 -17 5 -88 127 -88 151 0 7 -4 13 -10 13 -5 0 -10 8 -10 19 0 10 -7 24 -15 31 -8 7 -15 20 -15 30 0 10 -7 20 -15 24 -8 3 -15 12 -15 19 0 14 -44 106 -163 344 l-62 122 63 57 c76 69 92 97 92 167 0 44 -5 62 -30 95 -16 22 -46 52 -67 66 -32 22 -49 26 -114 26 l-76 0 -56 -55 c-46 -46 -57 -63 -63 -101 -7 -51 5 -106 33 -143 44 -57 79 -91 95 -91 10 0 18 -7 18 -15 0 -15 -96 -206 -108 -215 -10 -7 -62 -110 -62 -122 0 -5 -21 -42 -47 -81 -26 -40 -56 -88 -66 -107 -64 -117 -128 -217 -147 -228 -11 -7 -74 -18 -138 -24 -172 -15 -166 -10 -159 -116 3 -48 13 -139 22 -202 8 -63 19 -162 25 -220 12 -136 39 -355 48 -400 8 -34 9 -35 74 -45 37 -5 70 -13 73 -17 4 -4 2 -114 -5 -245 -6 -131 -13 -316 -16 -412 -2 -95 -7 -178 -12 -185 -4 -6 -9 -126 -11 -266 -1 -140 -6 -271 -11 -290 -5 -19 -10 -57 -11 -85 -1 -27 -8 -221 -15 -430 -14 -382 -18 -467 -34 -735 -4 -80 -9 -190 -10 -244 0 -55 -3 -103 -5 -106 -2 -4 -7 -101 -11 -216 -3 -115 -8 -212 -10 -215 -2 -3 -4 -43 -5 -88 l-2 -82 39 -41 c86 -90 155 -121 357 -162 109 -22 489 -23 579 0 140 35 220 67 328 134 145 90 264 130 384 130 74 0 263 -25 378 -49 61 -13 144 -48 184 -78 17 -13 34 -23 39 -23 4 0 24 -13 44 -29 20 -15 61 -41 91 -57 54 -29 57 -29 220 -28 156 0 340 21 475 54 22 5 59 10 82 10 23 0 63 4 90 10 26 5 89 14 138 21 50 6 121 18 158 25 38 8 90 14 115 14 51 0 92 21 92 47 0 8 -33 49 -72 90 -40 42 -78 81 -84 87 -6 6 -35 45 -64 86 -29 41 -56 77 -59 80 -3 3 -12 14 -18 25 -131 212 -131 212 -194 392 -94 268 -120 626 -65 898 23 114 32 153 51 215 29 94 29 112 3 137 -17 16 -41 24 -83 28 -130 12 -259 36 -385 72 -162 46 -333 177 -442 338 -107 156 -154 264 -185 419 -21 106 -20 316 2 411 9 39 19 81 22 95 9 42 132 280 188 365 29 44 79 107 112 140 53 55 224 195 238 195 3 0 22 11 43 23 20 13 60 32 87 42 28 11 64 26 80 35 92 50 235 74 450 74 149 1 181 -2 255 -22 152 -43 216 -71 342 -156 51 -34 148 -134 213 -220 120 -156 175 -360 175 -643 0 -144 8 -173 47 -173 16 0 37 7 47 15 11 8 36 15 55 15 19 0 71 4 115 10 262 31 273 32 362 21 49 -6 136 -13 194 -16 58 -2 121 -9 140 -15 19 -5 63 -10 97 -10 l63 0 1 58 c1 31 1 120 1 197 -1 134 11 215 39 267 5 10 9 23 9 29 0 31 118 243 169 301 80 94 177 180 241 215 61 34 176 74 260 92 30 6 86 18 123 26 95 21 303 20 376 -1 123 -37 187 -59 281 -101 170 -75 273 -156 430 -338 73 -86 99 -126 158 -246 68 -138 86 -194 112 -341 15 -83 15 -294 1 -331 -6 -16 -11 -38 -11 -50 0 -36 -51 -186 -84 -248 -38 -70 -54 -92 -135 -186 -137 -159 -284 -258 -446 -304 -77 -22 -115 -27 -324 -47 -60 -6 -96 -14 -102 -23 -8 -14 -4 -48 11 -84 19 -47 42 -144 36 -153 -3 -5 1 -32 9 -59 8 -28 16 -88 18 -134 1 -46 5 -86 9 -90 4 -3 11 -64 14 -135 5 -98 3 -165 -11 -270 -10 -76 -22 -143 -26 -148 -5 -6 -9 -21 -9 -35 -1 -27 -32 -126 -44 -138 -3 -3 -6 -14 -6 -24 0 -9 -6 -30 -14 -46 -8 -15 -45 -91 -82 -168 -93 -190 -121 -232 -242 -365 -57 -63 -111 -126 -120 -139 -25 -37 3 -51 107 -51 47 -1 147 -7 221 -14 130 -12 139 -14 243 -65 59 -28 146 -63 194 -76 79 -23 100 -25 302 -25 236 1 328 9 428 40 83 26 122 45 298 149 136 80 222 97 345 67 92 -23 143 -51 271 -149 20 -15 39 -27 42 -27 4 0 31 -12 60 -26 84 -41 188 -71 328 -93 85 -14 409 -14 463 0 181 46 229 62 332 110 79 37 79 34 65 246 -7 104 -17 231 -21 283 -5 52 -13 158 -19 235 -6 76 -14 147 -17 157 -3 11 -10 83 -14 161 -5 78 -16 234 -24 347 -9 113 -20 268 -25 345 -5 77 -12 147 -15 155 -3 8 -10 87 -16 175 -7 88 -16 214 -20 280 -10 131 -27 348 -35 435 -9 95 -26 369 -32 517 l-5 143 24 9 c14 5 51 30 82 55 31 26 74 56 96 67 22 12 46 31 52 43 12 21 15 39 37 191 30 208 42 282 67 415 7 41 16 109 20 150 9 101 0 109 -134 120 -54 4 -108 12 -119 18 -11 6 -23 9 -26 6 -3 -3 -26 -2 -50 1 l-46 7 -44 92 c-25 50 -58 120 -75 156 -16 36 -42 92 -57 125 -15 33 -48 110 -72 170 -25 61 -57 133 -71 160 -31 62 -92 215 -92 233 0 7 16 27 34 46 90 87 98 177 24 253 -78 79 -181 89 -252 24 -79 -73 -73 -171 16 -266 48 -50 56 -69 38 -80 -5 -3 -10 -15 -10 -25 0 -10 -7 -25 -15 -34 -8 -8 -15 -19 -15 -25 0 -5 -25 -71 -55 -146 -30 -75 -76 -191 -101 -258 -25 -67 -52 -140 -61 -162 -77 -197 -99 -247 -113 -255 -9 -5 -70 -12 -136 -16 -176 -10 -166 -21 -162 185 3 187 8 201 65 201 37 0 83 25 83 46 0 7 -17 46 -38 86 -22 40 -81 154 -132 253 -51 99 -96 185 -101 190 -10 13 -87 161 -199 381 -127 251 -104 230 -261 238 -73 4 -140 11 -150 16 -10 6 -49 10 -87 10 -64 0 -70 2 -75 23 -3 12 -6 97 -7 189 -1 185 -3 179 71 193 61 11 61 26 6 160 -27 66 -60 143 -72 170 -19 41 -76 185 -115 290 -4 11 -15 38 -23 60 -33 85 -59 161 -67 200 -5 22 -16 72 -25 110 -8 39 -20 108 -25 155 -5 47 -17 128 -26 180 -31 187 -52 430 -36 430 6 0 33 23 61 50 51 50 51 51 51 113 0 54 -4 67 -24 86 -48 45 -235 69 -282 37 -30 -21 -48 -84 -35 -119 6 -16 11 -37 11 -48 0 -11 18 -45 41 -75 40 -54 41 -57 36 -122 -3 -37 -13 -107 -22 -157 -9 -49 -20 -112 -24 -140 -5 -27 -17 -95 -29 -150 -11 -55 -23 -121 -27 -147 -3 -27 -11 -48 -17 -48 -5 0 -8 -7 -4 -15 5 -15 0 -46 -29 -170 -9 -38 -21 -90 -26 -115 -4 -25 -15 -76 -24 -115 -9 -38 -20 -90 -25 -115 -5 -25 -16 -74 -24 -110 -22 -89 -34 -145 -46 -210 -6 -30 -15 -64 -21 -75 -6 -12 -9 -45 -7 -75 l3 -55 70 -5 70 -5 3 -162 2 -163 -134 0 c-113 0 -135 2 -140 16 -8 21 -8 1588 1 2237 l6 518 36 17 c32 15 37 22 43 67 56 386 67 467 67 522 1 48 12 43 -139 65 l-94 14 -7 34 c-4 19 -9 115 -12 212 l-6 177 45 23 c52 25 51 19 18 173 -8 39 -20 93 -25 120 -6 28 -17 73 -24 100 -13 48 -30 123 -55 250 -7 33 -16 74 -22 91 -5 18 -13 56 -19 85 -5 30 -14 73 -19 97 -6 23 -14 61 -19 85 -4 23 -14 62 -20 87 -46 177 -90 387 -96 450 -12 132 -15 167 -26 237 -6 37 -12 91 -15 118 -15 182 -26 294 -39 390 -8 61 -22 173 -31 250 -9 77 -21 146 -26 153 -12 14 -41 14 -83 0z"/>
    </g>
</svg>