<?xml version="1.0" encoding="UTF-8" standalone="no"?>
<svg
   width="43.03616mm"
   height="78.052307mm"
   viewBox="0 0 152.49033 276.56329"
   version="1.1"
   id="svg8"
   xmlns:xlink="http://www.w3.org/1999/xlink"
   xmlns="http://www.w3.org/2000/svg"
   xmlns:svg="http://www.w3.org/2000/svg">
  <defs
     id="defs2">
    <radialGradient
       xlink:href="#a"
       id="c"
       cx="367.99158"
       cy="280.36646"
       r="368.71729"
       fx="367.99158"
       fy="280.36646"
       gradientTransform="matrix(0.30407,-0.10528,3.8564,11.13776,-825.1108,-2803.5461)"
       gradientUnits="userSpaceOnUse" />
    <linearGradient
       id="a">
      <stop
         offset="0"
         id="stop1" />
      <stop
         offset="1"
         stop-opacity="0"
         id="stop2" />
    </linearGradient>
  </defs>
  <g
     transform="translate(-114.90701,-58.60944)"
     id="g8">
    <g
       transform="matrix(0.29074,0,0,0.29074,81.631476,113.77111)"
       id="g7">
      <path
         fill="#b1060f"
         fill-rule="evenodd"
         stroke="#000000"
         d="m 451.82617,-188.60352 -0.36914,210.000004 -0.37109,209.999996 -17.27735,-48.75 c -0.006,-0.0168 -0.0273,-0.0789 -0.0332,-0.0957 l -22.32617,467.51563 c 21.95088,61.98892 33.71165,95.08081 33.84375,95.21289 0.17284,0.1729 12.68225,0.92753 27.79883,1.67773 45.79984,2.2727 102.55492,7.14269 145.60937,12.49219 9.96875,1.2385 18.54796,1.87275 19.06445,1.41016 0.5165,-0.4626 0.79775,-214.28135 0.625,-475.15235 l -0.31445,-474.31055 z m -336.875,-0.625 V 285.5625 c 0,261.1354 0.25552,475.04843 0.56836,475.36133 0.31282,0.3128 16.4847,-1.21398 35.9375,-3.39258 19.45278,-2.1787 46.33789,-4.88783 59.74414,-6.01953 20.56097,-1.7358 81.94995,-5.68286 89.0586,-5.72656 2.06786,-0.013 2.20049,-10.68157 2.5,-201.10157 l 0.3164,-201.08789 14.85352,42.02539 c 2.29551,6.49543 3.01555,8.52378 5.25195,14.85157 l 22.32031,-467.400394 c -4.72927,-13.371182 -2.25012,-6.352022 -7.66992,-21.675782 -18.23693,-51.562504 -33.71225,-95.296904 -34.39062,-97.187504 l -1.23438,-3.4375 z"
         id="path5"
         style="display:inline" />
      <path
         fill="url(#c)"
         fill-rule="evenodd"
         d="M 114.95117,-189.22852 V 77.285156 l 187.7461,498.023434 c 0.0196,-11.41266 0.042,-17.57934 0.0625,-30.625 l 0.3164,-201.08789 14.85352,42.02539 c 82.68109,233.9563 127.10203,359.39701 127.36328,359.65821 0.17284,0.1729 12.68225,0.92753 27.79883,1.67773 45.79984,2.2727 102.55492,7.14269 145.60937,12.49219 9.96875,1.2385 18.54796,1.87275 19.06445,1.41016 0.355,-0.31796 0.58674,-105.15812 0.64844,-253.0586 l -186.86718,-537.244139 -0.0899,50.839843 -0.37109,209.999996 -17.27735,-48.75 c -16.88185,-47.6341 -28.15376,-79.49 -95.97656,-271.249996 -18.23693,-51.562504 -33.71225,-95.296904 -34.39062,-97.187504 l -1.23438,-3.4375 H 114.95112 Z"
         id="path6"
         style="display:inline;fill:url(#c)" />
      <path
         fill="#e50914"
         fill-rule="evenodd"
         d="m 114.95508,-189.22852 188.12109,533.06641 v -0.24219 l 14.85352,42.02539 c 82.68109,233.9563 127.10203,359.39701 127.36328,359.65821 0.17284,0.1729 12.68225,0.92753 27.79883,1.67773 45.79984,2.2727 102.55492,7.14269 145.60937,12.49219 9.91766,1.23215 18.45293,1.86506 19.04883,1.41601 L 451.08594,231.29883 v 0.0976 l -17.27735,-48.75 c -16.88185,-47.6341 -28.15376,-79.49 -95.97656,-271.249996 -18.23693,-51.562504 -33.71225,-95.296904 -34.39062,-97.187504 l -1.23438,-3.4375 H 114.95508 Z"
         id="path7"
         style="display:inline" />
    </g>
  </g>
</svg>
